<svg width="24" height="30" viewBox="0 0 24 30" fill="none" xmlns="http://www.w3.org/2000/svg">
<path d="M15 21.0581V22.2835C15 24.3139 13.6569 25.9598 12 25.9598C10.3431 25.9598 9 24.3139 9 22.2835V21.0581M15 21.0581H9M15 21.0581H18.5905C18.973 21.0581 19.1652 21.0581 19.3201 20.9941C19.616 20.8718 19.8475 20.5871 19.9473 20.2245C19.9997 20.034 19.9997 19.7977 19.9997 19.3253C19.9997 19.1185 19.9995 19.0152 19.9863 18.9166C19.9614 18.7303 19.9024 18.5537 19.8126 18.4004C19.7651 18.3194 19.7047 18.2454 19.5858 18.0997L19.1963 17.6223C19.0706 17.4683 19 17.2594 19 17.0416V12.4801C19 7.74255 15.866 3.90203 12 3.90204C8.13401 3.90205 5 7.74257 5 12.4801V17.0417C5 17.2595 4.92924 17.4683 4.80357 17.6223L4.41406 18.0997C4.29477 18.2458 4.23504 18.3193 4.1875 18.4004C4.09766 18.5538 4.03815 18.7303 4.0132 18.9166C4 19.0152 4 19.1185 4 19.3253C4 19.7978 4 20.0339 4.05245 20.2245C4.15225 20.5871 4.3848 20.8718 4.68066 20.9941C4.83556 21.0581 5.02701 21.0581 5.40956 21.0581H9M18.0186 2.69336C19.3978 3.96697 20.4843 5.65657 21.1724 7.59763M5.98197 2.69336C4.60275 3.96697 3.5162 5.65657 2.82812 7.59763" stroke="#FC6736" stroke-linecap="round" stroke-linejoin="round"/>
</svg>
