<svg width="55" height="54" viewBox="0 0 55 54" fill="none" xmlns="http://www.w3.org/2000/svg">
<path d="M0 4C0 1.79086 1.79086 0 4 0H51C53.2091 0 55 1.79086 55 4V50C55 52.2091 53.2091 54 51 54H4C1.79086 54 0 52.2091 0 50V4Z" fill="#D9D9D9"/>
<path d="M30.01 19.7632H32.125V16.3182C31.101 16.2157 30.0721 16.165 29.0425 16.1665C25.9825 16.1665 23.89 17.9649 23.89 21.2582V24.0965H20.4363V27.9532H23.89V37.8332H28.03V27.9532H31.4725L31.99 24.0965H28.03V21.6374C28.03 20.4999 28.345 19.7632 30.01 19.7632Z" fill="black"/>
</svg>
