<svg width="55" height="54" viewBox="0 0 55 54" fill="none" xmlns="http://www.w3.org/2000/svg">
<path d="M0 4C0 1.79086 1.79086 0 4 0H51C53.2091 0 55 1.79086 55 4V50C55 52.2091 53.2091 54 51 54H4C1.79086 54 0 52.2091 0 50V4Z" fill="#D9D9D9"/>
<g clip-path="url(#clip0_254_93)">
<path d="M46 40.292V28.46C46 22.12 42.616 19.17 38.104 19.17C34.463 19.17 32.831 21.173 31.922 22.579V19.655H25.062C25.153 21.592 25.062 40.292 25.062 40.292H31.922V28.767C31.922 28.152 31.966 27.535 32.148 27.095C32.643 25.862 33.772 24.586 35.666 24.586C38.149 24.586 39.141 26.478 39.141 29.252V40.293L46 40.292ZM17.835 16.838C20.226 16.838 21.717 15.252 21.717 13.271C21.673 11.247 20.227 9.70703 17.881 9.70703C15.535 9.70703 14 11.246 14 13.271C14 15.252 15.489 16.838 17.792 16.838H17.835ZM21.265 40.292V19.655H14.406V40.292H21.265Z" fill="black"/>
</g>
<defs>
<clipPath id="clip0_254_93">
<rect width="32" height="32" fill="white" transform="translate(14 9)"/>
</clipPath>
</defs>
</svg>
