<svg width="55" height="54" viewBox="0 0 55 54" fill="none" xmlns="http://www.w3.org/2000/svg">
<path d="M0 4C0 1.79086 1.79086 0 4 0H51C53.2091 0 55 1.79086 55 4V50C55 52.2091 53.2091 54 51 54H4C1.79086 54 0 52.2091 0 50V4Z" fill="#D9D9D9"/>
<path d="M34.675 18.5973C34.3783 18.5973 34.0883 18.6824 33.8416 18.8417C33.595 19.001 33.4027 19.2275 33.2892 19.4924C33.1756 19.7574 33.1459 20.0489 33.2038 20.3302C33.2617 20.6115 33.4046 20.8699 33.6143 21.0726C33.8241 21.2754 34.0914 21.4135 34.3824 21.4695C34.6733 21.5254 34.9749 21.4967 35.249 21.387C35.5231 21.2772 35.7574 21.0914 35.9222 20.8529C36.087 20.6145 36.175 20.3341 36.175 20.0473C36.175 19.6628 36.017 19.294 35.7357 19.022C35.4544 18.7501 35.0728 18.5973 34.675 18.5973ZM40.425 21.5215C40.4007 20.5189 40.2064 19.527 39.85 18.5853C39.5322 17.7795 39.0375 17.0498 38.4 16.4465C37.781 15.8271 37.0245 15.352 36.1875 15.0569C35.2158 14.7019 34.1886 14.5098 33.15 14.489C31.825 14.4165 31.4 14.4165 28 14.4165C24.6 14.4165 24.175 14.4165 22.85 14.489C21.8114 14.5098 20.7842 14.7019 19.8125 15.0569C18.9771 15.355 18.2212 15.8297 17.6 16.4465C16.9593 17.0448 16.4677 17.7762 16.1625 18.5853C15.7952 19.5245 15.5965 20.5176 15.575 21.5215C15.5 22.8023 15.5 23.2132 15.5 26.4998C15.5 29.7865 15.5 30.1973 15.575 31.4782C15.5965 32.4821 15.7952 33.4751 16.1625 34.4144C16.4677 35.2235 16.9593 35.9548 17.6 36.5532C18.2212 37.17 18.9771 37.6447 19.8125 37.9428C20.7842 38.2978 21.8114 38.4899 22.85 38.5107C24.175 38.5832 24.6 38.5832 28 38.5832C31.4 38.5832 31.825 38.5832 33.15 38.5107C34.1886 38.4899 35.2158 38.2978 36.1875 37.9428C37.0245 37.6477 37.781 37.1725 38.4 36.5532C39.0403 35.9521 39.5354 35.2218 39.85 34.4144C40.2064 33.4726 40.4007 32.4807 40.425 31.4782C40.425 30.1973 40.5 29.7865 40.5 26.4998C40.5 23.2132 40.5 22.8023 40.425 21.5215ZM38.175 31.3332C38.1659 32.1002 38.0222 32.8601 37.75 33.5807C37.5504 34.1065 37.2298 34.5817 36.8125 34.9703C36.4071 35.3696 35.9165 35.6789 35.375 35.8765C34.6296 36.1396 33.8435 36.2785 33.05 36.2873C31.8 36.3478 31.3375 36.3598 28.05 36.3598C24.7625 36.3598 24.3 36.3598 23.05 36.2873C22.2261 36.3022 21.4057 36.1796 20.625 35.9248C20.1072 35.7171 19.6392 35.4086 19.25 35.0186C18.8351 34.6304 18.5186 34.1549 18.325 33.629C18.0198 32.8981 17.8506 32.1209 17.825 31.3332C17.825 30.1248 17.75 29.6778 17.75 26.4998C17.75 23.3219 17.75 22.8748 17.825 21.6665C17.8306 20.8824 17.9787 20.1053 18.2625 19.3707C18.4826 18.8606 18.8203 18.406 19.25 18.0415C19.6298 17.626 20.0991 17.2961 20.625 17.0748C21.3869 16.8091 22.19 16.6701 23 16.664C24.25 16.664 24.7125 16.5915 28 16.5915C31.2875 16.5915 31.75 16.5915 33 16.664C33.7935 16.6728 34.5796 16.8117 35.325 17.0748C35.893 17.2786 36.4029 17.6099 36.8125 18.0415C37.2221 18.4127 37.5422 18.8665 37.75 19.3707C38.0278 20.1065 38.1716 20.8832 38.175 21.6665C38.2375 22.8748 38.25 23.3219 38.25 26.4998C38.25 29.6778 38.2375 30.1248 38.175 31.3332ZM28 20.3011C26.7323 20.3035 25.4937 20.6691 24.4408 21.3516C23.3879 22.0342 22.568 23.0032 22.0845 24.136C21.6011 25.2689 21.4759 26.5149 21.7247 27.7165C21.9736 28.9182 22.5853 30.0216 23.4826 30.8873C24.3799 31.753 25.5225 32.3421 26.7661 32.5803C28.0096 32.8186 29.2983 32.6951 30.4693 32.2256C31.6403 31.756 32.6411 30.9615 33.3452 29.9424C34.0492 28.9233 34.425 27.7253 34.425 26.4998C34.4267 25.6843 34.2615 24.8766 33.939 24.123C33.6166 23.3694 33.1432 22.6849 32.5461 22.1088C31.949 21.5327 31.2399 21.0764 30.4597 20.7662C29.6796 20.456 28.8436 20.2979 28 20.3011ZM28 30.5236C27.1767 30.5236 26.372 30.2876 25.6874 29.8455C25.0029 29.4033 24.4694 28.7749 24.1544 28.0397C23.8393 27.3044 23.7569 26.4954 23.9175 25.7148C24.0781 24.9343 24.4745 24.2173 25.0567 23.6546C25.6388 23.0919 26.3805 22.7087 27.1879 22.5534C27.9954 22.3981 28.8323 22.4778 29.5929 22.7824C30.3535 23.0869 31.0036 23.6027 31.461 24.2644C31.9184 24.9261 32.1625 25.704 32.1625 26.4998C32.1625 27.0282 32.0548 27.5515 31.8456 28.0397C31.6365 28.5278 31.3299 28.9714 30.9433 29.3451C30.5568 29.7187 30.0979 30.0151 29.5929 30.2173C29.0879 30.4195 28.5466 30.5236 28 30.5236Z" fill="black"/>
</svg>
