<svg width="24" height="30" viewBox="0 0 24 30" fill="none" xmlns="http://www.w3.org/2000/svg">
<path d="M5 12.3854C5 18.3309 9.24448 23.2477 11.1232 25.1328C11.3921 25.4025 11.5281 25.539 11.7287 25.6082C11.8849 25.6621 12.1148 25.6621 12.271 25.6082C12.472 25.5389 12.6071 25.4037 12.877 25.1329C14.7557 23.2479 18.9999 18.3315 18.9999 12.3859C18.9999 10.1359 18.2625 7.97771 16.9497 6.38669C15.637 4.79568 13.8566 3.90186 12.0001 3.90186C10.1436 3.90186 8.36301 4.79581 7.05025 6.38683C5.7375 7.97784 5 10.1353 5 12.3854Z" stroke="#FC6736" stroke-linecap="round" stroke-linejoin="round"/>
<path d="M10 11.2545C10 12.608 10.8954 13.7053 12 13.7053C13.1046 13.7053 14 12.608 14 11.2545C14 9.90088 13.1046 8.80359 12 8.80359C10.8954 8.80359 10 9.90088 10 11.2545Z" stroke="#FC6736" stroke-linecap="round" stroke-linejoin="round"/>
</svg>
