<svg width="55" height="54" viewBox="0 0 55 54" fill="none" xmlns="http://www.w3.org/2000/svg">
<path d="M0 4C0 1.79086 1.79086 0 4 0H51C53.2091 0 55 1.79086 55 4V50C55 52.2091 53.2091 54 51 54H4C1.79086 54 0 52.2091 0 50V4Z" fill="#D9D9D9"/>
<path d="M34.6408 26.587C34.5202 26.5354 34.3977 26.4857 34.2736 26.4382C34.0575 22.8826 31.8815 20.847 28.2278 20.8262C28.2112 20.8261 28.1948 20.8261 28.1782 20.8261C25.9928 20.8261 24.1753 21.659 23.0566 23.1746L25.066 24.4053C25.9017 23.2732 27.2133 23.0319 28.1792 23.0319C28.1903 23.0319 28.2015 23.0319 28.2126 23.032C29.4156 23.0388 30.3234 23.3511 30.911 23.9602C31.3386 24.4036 31.6246 25.0163 31.7662 25.7896C30.6995 25.6277 29.546 25.5779 28.3128 25.6411C24.839 25.8197 22.6058 27.6286 22.7558 30.1422C22.8319 31.4172 23.5433 32.5141 24.7589 33.2306C25.7866 33.8363 27.1103 34.1326 28.486 34.0655C30.3027 33.9766 31.7279 33.3577 32.7222 32.226C33.4774 31.3667 33.955 30.253 34.1658 28.8497C35.0317 29.3163 35.6733 29.9302 36.0277 30.6682C36.6303 31.9228 36.6654 33.9844 34.7814 35.6651C33.1307 37.1375 31.1465 37.7745 28.1478 37.7941C24.8215 37.7721 22.3058 36.8197 20.6701 34.9632C19.1385 33.2247 18.347 30.7138 18.3174 27.5C18.347 24.2862 19.1385 21.7752 20.6701 20.0368C22.3058 18.1803 24.8214 17.2279 28.1478 17.2058C31.4983 17.228 34.0578 18.1851 35.756 20.0505C36.5887 20.9653 37.2165 22.1157 37.6304 23.4571L39.9852 22.8961C39.4835 21.2451 38.6941 19.8224 37.6199 18.6424C35.4428 16.2509 32.2586 15.0254 28.156 15H28.1396C24.0452 15.0253 20.8968 16.2554 18.7816 18.6562C16.8995 20.7925 15.9286 23.7651 15.8959 27.4912L15.8958 27.5L15.8959 27.5088C15.9286 31.2349 16.8995 34.2076 18.7816 36.3439C20.8968 38.7445 24.0452 39.9747 28.1396 40H28.156C31.7961 39.9775 34.3618 39.1266 36.4756 37.241C39.241 34.7742 39.1577 31.6822 38.2463 29.784C37.5923 28.4228 36.3456 27.3172 34.6408 26.587ZM28.3559 31.8629C26.8334 31.9395 25.2517 31.3293 25.1737 30.0224C25.1159 29.0534 25.9461 27.9721 28.4494 27.8433C28.736 27.8286 29.0173 27.8214 29.2937 27.8214C30.203 27.8214 31.0536 27.9002 31.827 28.0512C31.5385 31.2676 29.8466 31.7898 28.3559 31.8629Z" fill="black"/>
</svg>
